<svg version="1.0" preserveAspectRatio="xMidYMid meet" height="762" viewBox="0 0 525 571.499988" zoomAndPan="magnify" width="700" xmlns:xlink="http://www.w3.org/1999/xlink" xmlns="http://www.w3.org/2000/svg"><defs><clipPath id="59f0524b65"><path clip-rule="nonzero" d="M 0.230469 175 L 23 175 L 23 288 L 0.230469 288 Z M 0.230469 175"></path></clipPath><clipPath id="c98fe7b29e"><path clip-rule="nonzero" d="M 504 256 L 524.769531 256 L 524.769531 369 L 504 369 Z M 504 256"></path></clipPath></defs><path fill-rule="nonzero" fill-opacity="1" d="M 170.105469 189.234375 C 170.105469 189.234375 248.003906 233.125 322.183594 233.125 C 396.359375 233.125 443.53125 200.628906 443.53125 180.542969 C 443.53125 160.480469 400.289062 146.640625 326.554688 154.652344 C 263.199219 161.523438 170.105469 189.234375 170.105469 189.234375" fill="#ffffff"></path><path fill-rule="nonzero" fill-opacity="1" d="M 170.105469 189.234375 L 167.554688 193.785156 C 167.710938 193.863281 187.378906 204.949219 216.46875 216.058594 C 245.582031 227.140625 284.089844 238.304688 322.183594 238.328125 C 360.039062 238.328125 391.128906 230.054688 413.011719 219.023438 C 423.992188 213.480469 432.65625 207.261719 438.769531 200.8125 C 441.839844 197.609375 444.285156 194.304688 446.003906 190.949219 C 447.722656 187.566406 448.734375 184.082031 448.734375 180.542969 C 448.734375 177.785156 448.136719 175.050781 446.964844 172.554688 C 444.9375 168.15625 441.398438 164.464844 436.820312 161.367188 C 429.949219 156.761719 420.582031 153.300781 408.824219 150.882812 C 397.0625 148.460938 382.910156 147.160156 366.492188 147.160156 C 354.210938 147.160156 340.679688 147.890625 325.980469 149.476562 C 293.847656 152.964844 254.636719 161.652344 223.3125 169.484375 C 192.011719 177.289062 168.671875 184.238281 168.621094 184.261719 L 156.886719 187.75 L 167.554688 193.785156 L 170.105469 189.234375 L 171.585938 194.226562 C 171.613281 194.226562 171.953125 194.125 172.628906 193.917969 C 177.804688 192.40625 201.742188 185.460938 231.742188 178.121094 C 261.742188 170.757812 297.855469 163.007812 327.125 159.832031 C 341.460938 158.269531 354.625 157.566406 366.492188 157.566406 C 390.636719 157.542969 409.394531 160.558594 421.574219 165.269531 C 427.6875 167.585938 432.082031 170.34375 434.710938 173.023438 C 436.039062 174.375 436.949219 175.652344 437.496094 176.875 C 438.066406 178.121094 438.328125 179.292969 438.328125 180.542969 C 438.328125 182.050781 437.886719 183.949219 436.714844 186.214844 C 434.738281 190.167969 430.601562 194.957031 424.433594 199.71875 C 415.222656 206.898438 401.539062 214.003906 384.261719 219.230469 C 366.960938 224.488281 346.015625 227.921875 322.183594 227.921875 C 286.121094 227.949219 248.574219 217.175781 220.191406 206.328125 C 205.984375 200.914062 194.066406 195.476562 185.714844 191.417969 C 181.550781 189.390625 178.246094 187.699219 176.035156 186.527344 C 174.917969 185.929688 174.058594 185.484375 173.511719 185.171875 C 173.226562 185.019531 172.992188 184.886719 172.863281 184.808594 L 172.679688 184.707031 L 170.105469 189.234375 L 171.585938 194.226562 L 170.105469 189.234375" fill="#000000"></path><path fill-rule="nonzero" fill-opacity="1" d="M 39.75 180.542969 L 39.75 281.9375 C 39.75 281.9375 107.140625 255.996094 171.535156 263.332031 C 258.644531 273.273438 298.246094 314.171875 382.726562 314.015625 C 435.308594 313.914062 443.53125 281.9375 443.53125 281.9375 L 443.53125 180.542969 C 443.53125 180.542969 441.632812 186.917969 433.382812 194.046875 C 431.511719 195.710938 429.273438 197.375 426.644531 199.066406 C 421.726562 202.191406 415.457031 205.183594 407.496094 207.652344 C 405.363281 208.332031 403.074219 208.980469 400.730469 209.554688 C 395.371094 210.828125 389.414062 211.921875 382.726562 212.648438 C 381.972656 212.726562 381.191406 212.832031 380.464844 212.859375 C 378.148438 213.117188 375.910156 213.324219 373.699219 213.457031 C 364.070312 214.183594 355.070312 214.210938 346.664062 213.664062 C 344.347656 213.535156 342.113281 213.351562 339.898438 213.117188 C 332.796875 212.46875 326.085938 211.375 319.632812 209.996094 C 317.34375 209.527344 315.105469 208.980469 312.867188 208.410156 C 305.164062 206.507812 297.828125 204.167969 290.648438 201.566406 L 283.882812 199.121094 C 277.457031 196.648438 271.109375 194.046875 264.707031 191.367188 L 257.96875 188.554688 C 251.386719 185.824219 244.648438 183.066406 237.699219 180.414062 L 230.933594 177.914062 C 222.453125 174.84375 213.503906 172.007812 203.902344 169.613281 L 197.136719 168 C 190.738281 166.492188 183.972656 165.242188 176.867188 164.308594 C 175.464844 164.074219 174.03125 163.863281 172.628906 163.683594 C 171.769531 163.605469 170.960938 163.5 170.105469 163.421875 C 162.039062 162.511719 153.894531 162.09375 145.90625 162.09375 C 143.644531 162.09375 141.40625 162.09375 139.167969 162.171875 C 132.636719 162.328125 126.261719 162.746094 119.992188 163.316406 C 117.703125 163.527344 115.492188 163.761719 113.253906 164.046875 C 106.175781 164.851562 99.386719 165.867188 92.960938 166.988281 L 86.21875 168.261719 C 75.761719 170.292969 66.578125 172.554688 59.1875 174.53125 C 56.714844 175.261719 54.453125 175.910156 52.421875 176.457031 C 44.382812 178.878906 39.75 180.542969 39.75 180.542969" fill="#ffffff"></path><path fill-rule="nonzero" fill-opacity="1" d="M 165.472656 267.964844 C 167.292969 268.121094 169.113281 268.304688 170.9375 268.511719 C 172.417969 268.691406 173.875 268.847656 175.308594 269.03125 C 178.167969 269.394531 180.773438 267.390625 181.136719 264.53125 C 181.5 261.695312 179.496094 259.066406 176.632812 258.703125 C 175.152344 258.519531 173.640625 258.335938 172.105469 258.179688 C 170.207031 257.949219 168.257812 257.765625 166.332031 257.582031 C 163.46875 257.347656 160.972656 259.484375 160.710938 262.34375 C 160.476562 265.207031 162.585938 267.730469 165.472656 267.964844 Z M 191.699219 271.582031 C 195.03125 272.207031 198.28125 272.855469 201.480469 273.558594 C 204.292969 274.15625 207.050781 272.386719 207.648438 269.578125 C 208.273438 266.769531 206.503906 263.984375 203.695312 263.386719 C 200.390625 262.65625 197.03125 262.007812 193.597656 261.355469 C 190.761719 260.835938 188.054688 262.707031 187.535156 265.542969 C 187.015625 268.355469 188.890625 271.0625 191.699219 271.582031 Z M 217.613281 277.488281 C 245.816406 285.136719 269.675781 295.464844 295.226562 304 C 320.75 312.558594 347.992188 319.246094 382.285156 319.222656 L 382.726562 319.222656 C 396.621094 319.195312 407.78125 317.035156 416.65625 313.679688 C 419.335938 312.691406 420.6875 309.671875 419.671875 306.992188 C 418.660156 304.285156 415.667969 302.933594 412.984375 303.949219 C 405.390625 306.785156 395.554688 308.789062 382.699219 308.8125 L 382.753906 308.8125 L 382.285156 308.8125 C 349.34375 308.8125 323.535156 302.492188 298.53125 294.140625 C 273.554688 285.789062 249.382812 275.328125 220.34375 267.445312 C 217.5625 266.691406 214.699219 268.328125 213.945312 271.113281 C 213.191406 273.898438 214.855469 276.734375 217.613281 277.488281 Z M 440.851562 297.054688 C 443.921875 293.332031 445.875 289.871094 447.019531 287.375 C 448.214844 284.746094 447.070312 281.648438 444.46875 280.453125 C 441.839844 279.257812 438.769531 280.402344 437.546875 283.027344 C 436.714844 284.824219 435.257812 287.476562 432.839844 290.390625 C 431.015625 292.605469 431.328125 295.882812 433.515625 297.730469 C 435.753906 299.550781 439.03125 299.265625 440.851562 297.054688 Z M 448.734375 268.511719 L 448.734375 258.363281 C 448.734375 255.5 446.417969 253.160156 443.53125 253.160156 C 440.667969 253.160156 438.328125 255.5 438.328125 258.363281 L 438.328125 268.511719 C 438.328125 271.371094 440.667969 273.714844 443.53125 273.714844 C 446.417969 273.714844 448.734375 271.371094 448.734375 268.511719 Z M 448.734375 241.476562 L 448.734375 180.542969 C 448.734375 177.964844 446.835938 175.78125 444.285156 175.417969 C 441.710938 175.027344 439.289062 176.585938 438.535156 179.058594 C 438.300781 179.710938 436.429688 184.523438 429.976562 190.089844 L 429.976562 190.117188 C 428.285156 191.601562 426.253906 193.136719 423.835938 194.695312 L 423.863281 194.671875 C 419.359375 197.53125 413.507812 200.34375 405.960938 202.683594 L 405.910156 202.683594 C 403.878906 203.335938 401.71875 203.960938 399.507812 204.480469 C 394.382812 205.726562 388.632812 206.769531 382.128906 207.496094 L 382.726562 212.648438 L 382.257812 207.472656 C 381.375 207.550781 380.644531 207.652344 380.203125 207.652344 L 379.839844 207.679688 C 377.628906 207.964844 375.492188 208.148438 373.386719 208.277344 L 373.308594 208.277344 C 368.15625 208.667969 363.214844 208.851562 358.425781 208.851562 C 354.496094 208.851562 350.699219 208.71875 347.003906 208.488281 L 346.976562 208.488281 C 344.714844 208.332031 342.527344 208.175781 340.445312 207.964844 L 340.394531 207.941406 C 333.527344 207.289062 326.996094 206.25 320.726562 204.894531 L 320.671875 204.894531 C 318.617188 204.480469 316.589844 203.984375 314.53125 203.464844 C 311.75 202.734375 308.914062 204.425781 308.210938 207.210938 C 307.480469 209.996094 309.171875 212.832031 311.957031 213.535156 C 314.117188 214.082031 316.300781 214.625 318.589844 215.070312 L 319.632812 209.996094 L 318.539062 215.070312 C 325.175781 216.5 332.09375 217.617188 339.40625 218.320312 L 339.902344 213.117188 L 339.355469 218.296875 C 341.667969 218.554688 344.011719 218.738281 346.351562 218.867188 L 346.328125 218.867188 C 350.253906 219.128906 354.289062 219.257812 358.425781 219.257812 C 363.472656 219.257812 368.675781 219.050781 374.089844 218.660156 L 373.699219 213.457031 L 373.984375 218.660156 C 376.328125 218.53125 378.667969 218.320312 381.0625 218.035156 L 380.464844 212.859375 L 380.699219 218.0625 C 381.738281 218.007812 382.570312 217.90625 383.167969 217.851562 L 383.273438 217.828125 C 390.195312 217.074219 396.386719 215.953125 401.953125 214.601562 C 404.453125 214.003906 406.820312 213.324219 409.058594 212.625 L 409.03125 212.625 C 417.382812 210.046875 424.097656 206.847656 429.429688 203.464844 L 429.457031 203.464844 C 432.292969 201.644531 434.738281 199.796875 436.820312 197.949219 L 436.792969 197.976562 C 445.925781 190.089844 448.320312 182.753906 448.527344 182.050781 L 443.53125 180.542969 L 438.328125 180.542969 L 438.328125 241.476562 C 438.328125 244.339844 440.667969 246.679688 443.53125 246.679688 C 446.421875 246.679688 448.734375 244.339844 448.734375 241.476562 Z M 289.242188 195.527344 L 285.679688 194.226562 L 283.882812 199.121094 L 285.757812 194.253906 C 283.804688 193.5 281.851562 192.746094 279.929688 191.964844 C 277.246094 190.898438 274.230469 192.226562 273.164062 194.878906 C 272.097656 197.558594 273.398438 200.578125 276.078125 201.644531 C 278.054688 202.425781 280.03125 203.203125 282.007812 203.960938 L 282.085938 204.011719 L 285.679688 205.3125 C 288.382812 206.300781 291.375 204.894531 292.363281 202.214844 C 293.328125 199.511719 291.949219 196.519531 289.242188 195.527344 Z M 264.367188 185.589844 L 259.972656 183.769531 C 258.304688 183.066406 256.640625 182.390625 254.976562 181.714844 C 252.320312 180.59375 249.277344 181.871094 248.183594 184.523438 C 247.09375 187.203125 248.367188 190.222656 251.019531 191.339844 C 252.6875 192.015625 254.324219 192.691406 255.964844 193.371094 L 260.363281 195.191406 C 263.015625 196.308594 266.058594 195.035156 267.179688 192.382812 C 268.269531 189.726562 267.023438 186.683594 264.367188 185.589844 Z M 239.105469 175.390625 L 232.757812 173.023438 L 232.703125 173.023438 C 224.09375 169.902344 214.960938 167.011719 205.152344 164.566406 L 205.097656 164.542969 L 198.359375 162.929688 L 198.332031 162.929688 C 191.75 161.394531 184.832031 160.117188 177.546875 159.128906 L 176.867188 164.308594 L 177.726562 159.15625 C 176.21875 158.921875 174.710938 158.714844 173.253906 158.53125 L 173.199219 158.53125 C 172.417969 158.425781 171.535156 158.324219 170.519531 158.246094 L 170.105469 163.421875 L 170.703125 158.246094 C 162.402344 157.335938 154.078125 156.890625 145.90625 156.890625 C 143.644531 156.890625 141.351562 156.890625 139.011719 156.96875 L 139.039062 156.96875 C 132.378906 157.152344 125.871094 157.566406 119.523438 158.140625 L 119.550781 158.140625 C 117.183594 158.347656 114.894531 158.582031 112.628906 158.871094 L 112.65625 158.871094 C 105.472656 159.703125 98.578125 160.714844 92.074219 161.835938 L 91.996094 161.859375 L 85.230469 163.136719 L 85.230469 163.164062 C 74.640625 165.21875 65.328125 167.507812 57.835938 169.511719 L 57.730469 169.535156 C 55.285156 170.238281 53.046875 170.890625 51.015625 171.460938 L 50.9375 171.488281 C 42.769531 173.90625 38.058594 175.625 37.980469 175.675781 C 35.925781 176.40625 34.546875 178.382812 34.546875 180.542969 L 34.546875 281.9375 C 34.546875 283.652344 35.378906 285.242188 36.8125 286.203125 C 38.214844 287.191406 40.011719 287.398438 41.625 286.777344 L 41.730469 286.75 C 44.199219 285.789062 89.082031 269.136719 139.0625 267.390625 C 141.953125 267.289062 144.1875 264.867188 144.085938 262.007812 C 143.980469 259.117188 141.585938 256.878906 138.699219 256.984375 C 84.996094 258.910156 38.191406 276.96875 37.878906 277.070312 L 39.75 281.9375 L 44.953125 281.9375 L 44.953125 180.542969 L 39.75 180.542969 L 41.546875 185.433594 L 41.730469 185.382812 C 42.640625 185.042969 46.984375 183.535156 53.90625 181.453125 L 52.421875 176.457031 L 53.828125 181.480469 C 55.882812 180.90625 58.144531 180.257812 60.617188 179.527344 L 59.1875 174.53125 L 60.539062 179.578125 C 67.851562 177.601562 76.933594 175.363281 87.207031 173.363281 L 87.183594 173.363281 L 93.949219 172.085938 L 92.960938 166.988281 L 93.871094 172.085938 C 100.191406 170.992188 106.878906 170.003906 113.851562 169.199219 L 113.878906 169.199219 C 116.0625 168.9375 118.222656 168.703125 120.460938 168.523438 L 120.488281 168.523438 C 126.625 167.949219 132.898438 167.535156 139.296875 167.378906 L 139.324219 167.378906 C 141.457031 167.300781 143.644531 167.300781 145.90625 167.300781 C 153.710938 167.300781 161.671875 167.714844 169.53125 168.601562 L 169.714844 168.601562 C 170.390625 168.652344 171.117188 168.757812 172.027344 168.859375 L 171.976562 168.859375 C 173.328125 169.042969 174.683594 169.222656 176.011719 169.433594 L 176.167969 169.457031 C 183.113281 170.394531 189.722656 171.617188 195.964844 173.074219 L 195.941406 173.050781 L 202.679688 174.664062 L 202.652344 174.664062 C 212.046875 177.003906 220.8125 179.789062 229.164062 182.804688 L 229.140625 182.804688 L 235.488281 185.148438 C 238.195312 186.164062 241.1875 184.785156 242.175781 182.078125 C 243.191406 179.398438 241.8125 176.378906 239.105469 175.390625" fill="#000000"></path><path fill-rule="nonzero" fill-opacity="1" d="M 17.792969 281.9375 L 39.75 281.9375 L 39.75 180.542969 L 17.792969 180.542969 L 17.792969 281.9375" fill="#ffffff"></path><path fill-rule="nonzero" fill-opacity="1" d="M 17.792969 281.9375 L 17.792969 287.140625 L 39.75 287.140625 C 41.128906 287.140625 42.457031 286.566406 43.421875 285.605469 C 44.410156 284.640625 44.957031 283.289062 44.957031 281.9375 L 44.957031 180.542969 C 44.957031 179.191406 44.410156 177.863281 43.421875 176.875 C 42.457031 175.910156 41.128906 175.339844 39.75 175.339844 L 17.792969 175.339844 C 16.414062 175.339844 15.085938 175.910156 14.097656 176.875 C 13.132812 177.863281 12.589844 179.191406 12.589844 180.542969 L 12.589844 281.9375 C 12.589844 283.289062 13.132812 284.640625 14.097656 285.605469 C 15.085938 286.566406 16.414062 287.140625 17.792969 287.140625 L 17.792969 281.9375 L 22.996094 281.9375 L 22.996094 185.746094 L 34.546875 185.746094 L 34.546875 276.734375 L 17.792969 276.734375 L 17.792969 281.9375 L 22.996094 281.9375 L 17.792969 281.9375" fill="#000000"></path><path fill-rule="nonzero" fill-opacity="1" d="M 17.792969 281.9375 L 5.40625 281.9375 L 5.40625 180.542969 L 17.792969 180.542969 L 17.792969 281.9375" fill="#ffffff"></path><g clip-path="url(#59f0524b65)"><path fill-rule="nonzero" fill-opacity="1" d="M 17.792969 281.9375 L 17.792969 276.734375 L 10.609375 276.734375 L 10.609375 185.746094 L 12.589844 185.746094 L 12.589844 281.9375 L 17.792969 281.9375 L 17.792969 276.734375 L 17.792969 281.9375 L 22.996094 281.9375 L 22.996094 180.542969 C 22.996094 179.191406 22.449219 177.863281 21.460938 176.875 C 20.496094 175.910156 19.171875 175.339844 17.792969 175.339844 L 5.40625 175.339844 C 4.027344 175.339844 2.703125 175.910156 1.710938 176.875 C 0.75 177.863281 0.203125 179.191406 0.203125 180.542969 L 0.203125 281.9375 C 0.203125 283.289062 0.75 284.640625 1.710938 285.605469 C 2.703125 286.566406 4.027344 287.140625 5.40625 287.140625 L 17.792969 287.140625 C 19.171875 287.140625 20.496094 286.566406 21.460938 285.605469 C 22.449219 284.640625 22.996094 283.289062 22.996094 281.9375 L 17.792969 281.9375" fill="#000000"></path></g><path fill-rule="nonzero" fill-opacity="1" d="M 426.644531 199.066406 L 426.644531 257.6875 L 433.382812 257.6875 L 433.382812 194.046875 C 431.511719 195.710938 429.273438 197.375 426.644531 199.066406" fill="#000000"></path><path fill-rule="nonzero" fill-opacity="1" d="M 400.730469 209.554688 L 400.730469 238.070312 L 407.496094 238.070312 L 407.496094 207.652344 C 405.363281 208.332031 403.074219 208.980469 400.730469 209.554688" fill="#000000"></path><path fill-rule="nonzero" fill-opacity="1" d="M 373.699219 213.457031 L 373.699219 243.195312 L 380.464844 243.195312 L 380.464844 212.859375 C 378.148438 213.117188 375.910156 213.324219 373.699219 213.457031" fill="#000000"></path><path fill-rule="nonzero" fill-opacity="1" d="M 346.664062 213.664062 L 346.664062 243.195312 L 339.898438 243.195312 L 339.898438 213.117188 L 346.664062 213.664062" fill="#000000"></path><path fill-rule="nonzero" fill-opacity="1" d="M 312.867188 208.410156 L 312.867188 243.195312 L 319.632812 243.195312 L 319.632812 209.996094 C 317.34375 209.527344 315.105469 208.980469 312.867188 208.410156" fill="#000000"></path><path fill-rule="nonzero" fill-opacity="1" d="M 290.648438 201.566406 L 290.648438 243.195312 L 283.882812 243.195312 L 283.882812 199.121094 L 290.648438 201.566406" fill="#000000"></path><path fill-rule="nonzero" fill-opacity="1" d="M 264.707031 191.367188 L 264.707031 216.734375 L 257.96875 216.734375 L 257.96875 188.554688 L 264.707031 191.367188" fill="#000000"></path><path fill-rule="nonzero" fill-opacity="1" d="M 237.699219 180.414062 L 237.699219 201.878906 L 230.933594 201.878906 L 230.933594 177.914062 L 237.699219 180.414062" fill="#000000"></path><path fill-rule="nonzero" fill-opacity="1" d="M 203.902344 169.613281 L 203.902344 192.902344 L 197.136719 192.902344 L 197.136719 168 L 203.902344 169.613281" fill="#000000"></path><path fill-rule="nonzero" fill-opacity="1" d="M 176.867188 164.308594 L 176.867188 189.234375 L 170.105469 189.234375 L 170.105469 163.421875 L 176.867188 164.308594" fill="#000000"></path><path fill-rule="nonzero" fill-opacity="1" d="M 139.167969 162.171875 L 139.167969 207.550781 L 145.90625 207.550781 L 145.90625 162.09375 C 143.644531 162.09375 141.40625 162.09375 139.167969 162.171875" fill="#000000"></path><path fill-rule="nonzero" fill-opacity="1" d="M 113.253906 164.046875 L 113.253906 192.902344 L 119.992188 192.902344 L 119.992188 163.316406 C 117.703125 163.527344 115.492188 163.761719 113.253906 164.046875" fill="#000000"></path><path fill-rule="nonzero" fill-opacity="1" d="M 92.960938 166.988281 L 92.960938 192.902344 L 86.21875 192.902344 L 86.21875 168.261719 L 92.960938 166.988281" fill="#000000"></path><path fill-rule="nonzero" fill-opacity="1" d="M 52.421875 176.457031 L 52.421875 201.878906 L 59.1875 201.878906 L 59.1875 174.53125 C 56.714844 175.261719 54.453125 175.910156 52.421875 176.457031" fill="#000000"></path><path fill-rule="nonzero" fill-opacity="1" d="M 365.398438 244.78125 C 365.398438 244.78125 272.589844 319.507812 198.410156 319.507812 C 124.234375 319.507812 83.539062 282.09375 83.539062 262.03125 C 83.539062 241.972656 144.945312 207.550781 218.679688 215.5625 C 282.035156 222.433594 365.398438 244.78125 365.398438 244.78125" fill="#ffffff"></path><path fill-rule="nonzero" fill-opacity="1" d="M 365.398438 244.78125 L 362.144531 240.75 L 361.886719 240.929688 C 359.257812 243.011719 335.738281 261.511719 304.097656 279.386719 C 288.28125 288.3125 270.429688 297.078125 252.269531 303.582031 C 234.058594 310.113281 215.53125 314.328125 198.410156 314.304688 C 162.21875 314.328125 134.433594 305.171875 115.882812 293.851562 C 106.617188 288.207031 99.644531 281.988281 95.144531 276.265625 C 92.90625 273.375 91.269531 270.644531 90.203125 268.199219 C 89.1875 265.753906 88.746094 263.644531 88.746094 262.03125 C 88.71875 260.964844 89.132812 259.40625 90.28125 257.425781 C 92.28125 253.964844 96.523438 249.570312 102.691406 245.25 C 111.902344 238.71875 125.273438 232.265625 141.378906 227.480469 C 157.511719 222.691406 176.402344 219.570312 196.722656 219.570312 C 203.695312 219.570312 210.847656 219.960938 218.132812 220.742188 C 249.460938 224.125 286.015625 231.410156 314.664062 237.835938 C 329 241.035156 341.355469 244.054688 350.125 246.238281 C 354.496094 247.332031 357.984375 248.242188 360.375 248.839844 C 361.574219 249.179688 362.511719 249.414062 363.109375 249.570312 C 363.734375 249.726562 364.046875 249.828125 364.046875 249.828125 L 365.398438 244.78125 L 362.144531 240.75 L 365.398438 244.78125 L 366.75 239.761719 C 366.699219 239.761719 345.804688 234.140625 316.925781 227.660156 C 288.070312 221.210938 251.28125 213.871094 219.253906 210.386719 C 211.601562 209.554688 204.058594 209.164062 196.722656 209.164062 C 164.121094 209.1875 135.160156 216.734375 114.058594 226.726562 C 103.496094 231.746094 94.910156 237.367188 88.71875 243.195312 C 85.621094 246.109375 83.125 249.074219 81.304688 252.171875 C 79.507812 255.269531 78.335938 258.570312 78.335938 262.03125 C 78.335938 265.414062 79.167969 268.847656 80.652344 272.308594 C 83.226562 278.320312 87.78125 284.460938 94.105469 290.445312 C 103.625 299.367188 117.207031 307.902344 134.691406 314.25 C 152.175781 320.601562 173.511719 324.710938 198.410156 324.710938 C 217.847656 324.710938 238.089844 319.871094 257.605469 312.742188 C 286.847656 301.996094 314.53125 286.074219 334.957031 272.804688 C 355.382812 259.535156 368.546875 248.917969 368.652344 248.839844 L 376.636719 242.414062 L 366.75 239.761719 L 365.398438 244.78125" fill="#000000"></path><path fill-rule="nonzero" fill-opacity="1" d="M 487.320312 262.03125 L 487.320312 363.398438 C 487.320312 363.398438 419.933594 337.484375 355.539062 344.796875 C 268.425781 354.734375 228.828125 395.636719 144.34375 395.480469 C 91.734375 395.402344 83.539062 363.398438 83.539062 363.398438 L 83.539062 262.03125 C 83.539062 262.03125 85.414062 268.378906 93.6875 275.511719 C 95.5625 277.148438 97.796875 278.839844 100.425781 280.53125 C 105.34375 283.652344 111.613281 286.671875 119.574219 289.117188 C 121.710938 289.792969 123.972656 290.445312 126.339844 291.015625 C 131.699219 292.292969 137.660156 293.382812 144.34375 294.113281 C 145.101562 294.191406 145.878906 294.296875 146.609375 294.320312 C 148.925781 294.605469 151.164062 294.789062 153.375 294.945312 C 163 295.648438 172.003906 295.675781 180.40625 295.128906 C 182.722656 294.996094 184.960938 294.839844 187.171875 294.609375 C 194.273438 293.929688 200.988281 292.839844 207.441406 291.460938 C 209.730469 290.992188 211.96875 290.445312 214.207031 289.871094 C 221.90625 287.972656 229.242188 285.65625 236.425781 283.054688 L 243.191406 280.582031 C 249.617188 278.113281 255.964844 275.511719 262.339844 272.828125 L 269.105469 270.046875 C 275.6875 267.289062 282.425781 264.53125 289.371094 261.902344 L 296.136719 259.40625 C 304.621094 256.308594 313.570312 253.472656 323.171875 251.078125 L 329.933594 249.464844 C 336.335938 247.957031 343.101562 246.707031 350.203125 245.769531 C 351.609375 245.535156 353.039062 245.328125 354.46875 245.171875 C 355.304688 245.066406 356.109375 244.964844 356.96875 244.886719 C 365.035156 243.976562 373.179688 243.585938 381.140625 243.585938 C 383.429688 243.585938 385.667969 243.585938 387.90625 243.636719 C 394.433594 243.820312 400.808594 244.210938 407.078125 244.78125 C 409.371094 244.992188 411.582031 245.222656 413.820312 245.511719 C 420.894531 246.316406 427.6875 247.332031 434.113281 248.425781 L 440.851562 249.726562 C 451.3125 251.753906 460.496094 254.019531 467.886719 255.996094 C 470.355469 256.722656 472.621094 257.347656 474.648438 257.949219 C 482.691406 260.339844 487.320312 262.03125 487.320312 262.03125" fill="#ffffff"></path><path fill-rule="nonzero" fill-opacity="1" d="M 360.742188 339.074219 C 358.816406 339.230469 356.890625 339.410156 354.9375 339.644531 C 353.429688 339.828125 351.921875 339.984375 350.4375 340.191406 C 347.574219 340.554688 345.574219 343.15625 345.9375 345.992188 C 346.300781 348.855469 348.902344 350.886719 351.765625 350.519531 C 353.195312 350.3125 354.652344 350.128906 356.136719 349.976562 C 357.957031 349.765625 359.777344 349.585938 361.625 349.429688 C 364.460938 349.195312 366.59375 346.671875 366.359375 343.808594 C 366.128906 340.945312 363.601562 338.8125 360.742188 339.074219 Z M 333.472656 342.820312 C 330.039062 343.445312 326.683594 344.148438 323.378906 344.847656 C 320.570312 345.449219 318.800781 348.230469 319.398438 351.042969 C 320.023438 353.851562 322.78125 355.621094 325.589844 355.023438 C 328.789062 354.320312 332.042969 353.667969 335.375 353.070312 C 338.183594 352.550781 340.054688 349.820312 339.535156 347.007812 C 339.015625 344.171875 336.308594 342.300781 333.472656 342.820312 Z M 306.726562 348.933594 C 277.691406 356.816406 253.519531 367.25 228.542969 375.601562 C 203.539062 383.953125 177.726562 390.277344 144.761719 390.277344 L 144.34375 390.277344 L 144.371094 390.277344 C 131.542969 390.277344 121.683594 388.273438 114.085938 385.410156 C 111.40625 384.398438 108.414062 385.777344 107.398438 388.457031 C 106.382812 391.136719 107.738281 394.128906 110.417969 395.167969 C 119.289062 398.5 130.453125 400.683594 144.34375 400.683594 L 144.761719 400.683594 C 179.082031 400.710938 206.320312 394.023438 231.84375 385.464844 C 257.394531 376.929688 281.253906 366.601562 309.457031 358.976562 C 312.242188 358.222656 313.882812 355.359375 313.128906 352.578125 C 312.371094 349.820312 309.511719 348.179688 306.726562 348.933594 Z M 94.234375 371.855469 C 91.8125 368.941406 90.355469 366.3125 89.5 364.492188 C 88.300781 361.863281 85.230469 360.71875 82.605469 361.941406 C 80.003906 363.140625 78.855469 366.210938 80.054688 368.839844 C 81.226562 371.363281 83.148438 374.796875 86.21875 378.515625 C 88.066406 380.730469 91.320312 381.039062 93.558594 379.195312 C 95.769531 377.371094 96.054688 374.066406 94.234375 371.855469 Z M 88.746094 349.976562 L 88.746094 339.855469 C 88.746094 336.964844 86.402344 334.648438 83.539062 334.648438 C 80.679688 334.648438 78.335938 336.964844 78.335938 339.855469 L 78.335938 349.976562 C 78.335938 352.863281 80.679688 355.179688 83.539062 355.179688 C 86.402344 355.179688 88.746094 352.863281 88.746094 349.976562 Z M 88.746094 322.941406 L 88.746094 262.03125 L 83.539062 262.03125 L 78.546875 263.515625 C 78.753906 264.242188 81.148438 271.554688 90.28125 279.4375 L 90.253906 279.414062 C 92.335938 281.261719 94.78125 283.082031 97.617188 284.902344 L 97.640625 284.929688 C 102.976562 288.3125 109.664062 291.511719 118.039062 294.085938 L 118.015625 294.085938 C 120.253906 294.789062 122.644531 295.464844 125.117188 296.066406 C 130.6875 297.417969 136.878906 298.535156 143.773438 299.289062 L 143.902344 299.316406 C 144.5 299.367188 145.335938 299.472656 146.375 299.523438 L 146.609375 294.320312 L 146.011719 299.5 C 148.40625 299.785156 150.746094 299.992188 153.0625 300.125 L 153.375 294.945312 L 153.011719 300.125 C 158.394531 300.511719 163.597656 300.695312 168.621094 300.695312 C 172.785156 300.695312 176.816406 300.589844 180.746094 300.332031 L 180.71875 300.332031 C 183.0625 300.203125 185.402344 300.019531 187.71875 299.785156 L 187.171875 294.609375 L 187.667969 299.785156 C 194.976562 299.082031 201.898438 297.964844 208.535156 296.53125 L 208.507812 296.558594 C 210.769531 296.089844 212.957031 295.542969 215.117188 294.996094 C 217.898438 294.296875 219.566406 291.460938 218.863281 288.675781 C 218.160156 285.890625 215.324219 284.199219 212.539062 284.929688 C 210.484375 285.449219 208.457031 285.917969 206.375 286.359375 L 206.347656 286.359375 C 200.078125 287.710938 193.546875 288.753906 186.679688 289.402344 L 186.625 289.429688 C 184.519531 289.636719 182.359375 289.820312 180.121094 289.949219 L 180.070312 289.949219 C 176.402344 290.183594 172.574219 290.289062 168.621094 290.289062 C 163.859375 290.289062 158.917969 290.105469 153.765625 289.742188 L 153.6875 289.742188 C 151.578125 289.613281 149.445312 289.402344 147.234375 289.167969 L 146.871094 289.144531 C 146.425781 289.117188 145.699219 289.011719 144.8125 288.933594 L 144.347656 294.113281 L 144.945312 288.960938 C 138.441406 288.234375 132.691406 287.191406 127.5625 285.941406 L 127.5625 285.96875 C 125.328125 285.421875 123.191406 284.796875 121.164062 284.175781 L 121.109375 284.148438 C 113.566406 281.804688 107.710938 278.996094 103.210938 276.132812 L 103.238281 276.160156 C 100.816406 274.597656 98.789062 273.0625 97.097656 271.582031 L 97.070312 271.582031 C 93.375 268.378906 91.214844 265.441406 89.96875 263.386719 C 89.34375 262.371094 88.953125 261.5625 88.746094 261.070312 C 88.640625 260.808594 88.5625 260.628906 88.535156 260.550781 C 87.78125 258.050781 85.363281 256.492188 82.785156 256.878906 C 80.210938 257.246094 78.335938 259.429688 78.335938 262.03125 L 78.335938 322.941406 C 78.335938 325.828125 80.679688 328.144531 83.539062 328.144531 C 86.402344 328.144531 88.746094 325.828125 88.746094 322.941406 Z M 241.394531 286.777344 L 244.984375 285.476562 L 245.0625 285.421875 C 247.039062 284.667969 249.019531 283.886719 250.996094 283.105469 C 253.675781 282.039062 254.976562 279.023438 253.910156 276.34375 C 252.84375 273.664062 249.824219 272.363281 247.144531 273.429688 C 245.21875 274.210938 243.269531 274.964844 241.316406 275.71875 L 243.191406 280.582031 L 241.394531 275.691406 L 237.804688 276.992188 C 235.125 277.980469 233.71875 280.972656 234.707031 283.679688 C 235.695312 286.359375 238.6875 287.765625 241.394531 286.777344 Z M 266.710938 276.65625 L 271.109375 274.832031 C 272.746094 274.15625 274.386719 273.480469 276.050781 272.777344 C 278.703125 271.683594 279.980469 268.640625 278.886719 265.988281 C 277.792969 263.332031 274.75 262.085938 272.097656 263.152344 C 270.429688 263.855469 268.765625 264.53125 267.101562 265.234375 L 262.703125 267.054688 C 260.050781 268.148438 258.800781 271.191406 259.894531 273.84375 C 260.988281 276.5 264.054688 277.773438 266.710938 276.65625 Z M 291.585938 266.636719 L 297.933594 264.269531 L 297.90625 264.269531 C 306.257812 261.25 315.027344 258.46875 324.445312 256.125 L 324.394531 256.152344 L 331.132812 254.511719 L 331.105469 254.511719 C 337.351562 253.082031 343.960938 251.859375 350.90625 250.921875 L 351.035156 250.894531 C 352.414062 250.6875 353.742188 250.480469 355.070312 250.324219 L 355.09375 250.324219 C 355.929688 250.21875 356.65625 250.140625 357.410156 250.0625 L 357.539062 250.0625 C 365.398438 249.179688 373.359375 248.789062 381.140625 248.789062 C 383.429688 248.789062 385.613281 248.789062 387.75 248.839844 L 387.773438 248.839844 C 394.175781 249.023438 400.445312 249.414062 406.585938 249.960938 L 406.613281 249.960938 C 408.847656 250.167969 411.007812 250.402344 413.195312 250.664062 L 413.246094 250.664062 C 420.167969 251.46875 426.878906 252.484375 433.203125 253.578125 L 434.113281 248.425781 L 433.125 253.550781 L 439.890625 254.851562 L 439.863281 254.824219 C 450.140625 256.828125 459.222656 259.066406 466.53125 261.042969 L 467.886719 255.996094 L 466.453125 261.015625 C 468.925781 261.71875 471.191406 262.371094 473.246094 262.941406 L 474.648438 257.949219 L 473.167969 262.917969 C 477.121094 264.113281 480.242188 265.101562 482.351562 265.804688 C 483.417969 266.167969 484.199219 266.457031 484.746094 266.636719 C 485.03125 266.742188 485.214844 266.792969 485.371094 266.847656 L 485.550781 266.921875 L 487.320312 262.03125 L 482.117188 262.03125 L 482.117188 363.398438 L 487.320312 363.398438 L 489.195312 358.535156 C 488.882812 358.457031 442.050781 340.375 388.371094 338.449219 C 385.484375 338.34375 383.089844 340.609375 382.988281 343.46875 C 382.882812 346.332031 385.121094 348.75 388.007812 348.855469 C 413.792969 349.765625 438.25 354.632812 456.203125 359.261719 C 465.179688 361.578125 472.515625 363.84375 477.617188 365.507812 C 480.164062 366.339844 482.117188 367.042969 483.46875 367.511719 C 484.121094 367.746094 484.640625 367.953125 484.980469 368.082031 L 485.34375 368.214844 L 485.449219 368.265625 C 487.0625 368.863281 488.855469 368.65625 490.261719 367.691406 C 491.691406 366.703125 492.523438 365.117188 492.523438 363.398438 L 492.523438 262.03125 C 492.523438 259.847656 491.144531 257.871094 489.089844 257.140625 C 489.011719 257.113281 484.304688 255.398438 476.132812 252.953125 L 476.054688 252.925781 C 474.050781 252.351562 471.789062 251.703125 469.316406 251 L 469.238281 251 C 461.746094 248.972656 452.429688 246.679688 441.867188 244.625 L 441.839844 244.625 L 435.074219 243.324219 L 434.996094 243.324219 C 428.492188 242.179688 421.597656 241.140625 414.417969 240.332031 L 414.441406 240.332031 C 412.179688 240.074219 409.890625 239.8125 407.523438 239.605469 L 407.546875 239.605469 C 401.199219 239.03125 394.695312 238.617188 388.035156 238.433594 L 388.0625 238.433594 C 385.71875 238.382812 383.429688 238.382812 381.140625 238.382812 C 372.996094 238.382812 364.671875 238.773438 356.371094 239.707031 L 356.96875 244.886719 L 356.527344 239.707031 C 355.5625 239.785156 354.679688 239.890625 353.847656 239.996094 C 352.335938 240.175781 350.828125 240.386719 349.371094 240.644531 L 350.203125 245.769531 L 349.5 240.621094 C 342.242188 241.582031 335.320312 242.855469 328.738281 244.390625 L 328.710938 244.390625 L 321.949219 246.03125 L 321.921875 246.03125 C 312.113281 248.476562 302.980469 251.363281 294.367188 254.511719 L 294.34375 254.511719 L 287.96875 256.855469 C 285.261719 257.871094 283.910156 260.863281 284.898438 263.542969 C 285.886719 266.246094 288.878906 267.625 291.585938 266.636719" fill="#000000"></path><path fill-rule="nonzero" fill-opacity="1" d="M 509.28125 363.398438 L 487.320312 363.398438 L 487.320312 262.03125 L 509.28125 262.03125 L 509.28125 363.398438" fill="#ffffff"></path><path fill-rule="nonzero" fill-opacity="1" d="M 509.28125 363.398438 L 509.28125 358.195312 L 492.523438 358.195312 L 492.523438 267.234375 L 504.078125 267.234375 L 504.078125 363.398438 L 509.28125 363.398438 L 509.28125 358.195312 L 509.28125 363.398438 L 514.484375 363.398438 L 514.484375 262.03125 C 514.484375 260.652344 513.9375 259.300781 512.949219 258.335938 C 511.988281 257.375 510.660156 256.828125 509.28125 256.828125 L 487.320312 256.828125 C 485.941406 256.828125 484.613281 257.375 483.652344 258.335938 C 482.664062 259.300781 482.117188 260.652344 482.117188 262.03125 L 482.117188 363.398438 C 482.117188 364.777344 482.664062 366.105469 483.652344 367.070312 C 484.613281 368.03125 485.941406 368.605469 487.320312 368.605469 L 509.28125 368.605469 C 510.660156 368.605469 511.988281 368.03125 512.949219 367.070312 C 513.9375 366.105469 514.484375 364.777344 514.484375 363.398438 L 509.28125 363.398438" fill="#000000"></path><path fill-rule="nonzero" fill-opacity="1" d="M 509.28125 363.398438 L 521.664062 363.398438 L 521.664062 262.03125 L 509.28125 262.03125 L 509.28125 363.398438" fill="#ffffff"></path><g clip-path="url(#c98fe7b29e)"><path fill-rule="nonzero" fill-opacity="1" d="M 509.28125 363.398438 L 509.28125 368.605469 L 521.664062 368.605469 C 523.042969 368.605469 524.398438 368.03125 525.359375 367.070312 C 526.324219 366.105469 526.867188 364.777344 526.867188 363.398438 L 526.867188 262.03125 C 526.867188 260.652344 526.324219 259.300781 525.359375 258.335938 C 524.398438 257.375 523.042969 256.828125 521.664062 256.828125 L 509.28125 256.828125 C 507.902344 256.828125 506.574219 257.375 505.613281 258.335938 C 504.648438 259.300781 504.078125 260.652344 504.078125 262.03125 L 504.078125 363.398438 C 504.078125 364.777344 504.648438 366.105469 505.613281 367.070312 C 506.574219 368.03125 507.902344 368.605469 509.28125 368.605469 L 509.28125 363.398438 L 514.484375 363.398438 L 514.484375 267.234375 L 516.460938 267.234375 L 516.460938 358.195312 L 509.28125 358.195312 L 509.28125 363.398438 L 514.484375 363.398438 L 509.28125 363.398438" fill="#000000"></path></g><path fill-rule="nonzero" fill-opacity="1" d="M 100.425781 280.53125 L 100.425781 339.175781 L 93.6875 339.175781 L 93.6875 275.511719 C 95.5625 277.148438 97.796875 278.839844 100.425781 280.53125" fill="#000000"></path><path fill-rule="nonzero" fill-opacity="1" d="M 126.339844 291.015625 L 126.339844 319.53125 L 119.574219 319.53125 L 119.574219 289.117188 C 121.710938 289.792969 123.972656 290.445312 126.339844 291.015625" fill="#000000"></path><path fill-rule="nonzero" fill-opacity="1" d="M 153.375 294.945312 L 153.375 324.683594 L 146.609375 324.683594 L 146.609375 294.320312 C 148.925781 294.605469 151.164062 294.789062 153.375 294.945312" fill="#000000"></path><path fill-rule="nonzero" fill-opacity="1" d="M 187.171875 294.609375 L 187.171875 324.683594 L 180.40625 324.683594 L 180.40625 295.128906 L 187.171875 294.609375" fill="#000000"></path><path fill-rule="nonzero" fill-opacity="1" d="M 214.207031 289.871094 L 214.207031 324.683594 L 207.441406 324.683594 L 207.441406 291.460938 C 209.730469 290.992188 211.96875 290.445312 214.207031 289.871094" fill="#000000"></path><path fill-rule="nonzero" fill-opacity="1" d="M 243.191406 280.582031 L 243.191406 324.683594 L 236.425781 324.683594 L 236.425781 283.054688 L 243.191406 280.582031" fill="#000000"></path><path fill-rule="nonzero" fill-opacity="1" d="M 269.105469 270.046875 L 269.105469 298.222656 L 262.339844 298.222656 L 262.339844 272.828125 L 269.105469 270.046875" fill="#000000"></path><path fill-rule="nonzero" fill-opacity="1" d="M 296.136719 259.40625 L 296.136719 283.339844 L 289.371094 283.339844 L 289.371094 261.902344 L 296.136719 259.40625" fill="#000000"></path><path fill-rule="nonzero" fill-opacity="1" d="M 329.933594 249.464844 L 329.933594 274.363281 L 323.171875 274.363281 L 323.171875 251.078125 L 329.933594 249.464844" fill="#000000"></path><path fill-rule="nonzero" fill-opacity="1" d="M 356.96875 244.886719 L 356.96875 270.695312 L 350.203125 270.695312 L 350.203125 245.769531 L 356.96875 244.886719" fill="#000000"></path><path fill-rule="nonzero" fill-opacity="1" d="M 387.90625 243.636719 L 387.90625 289.011719 L 381.140625 289.011719 L 381.140625 243.585938 C 383.429688 243.585938 385.667969 243.585938 387.90625 243.636719" fill="#000000"></path><path fill-rule="nonzero" fill-opacity="1" d="M 413.820312 245.511719 L 413.820312 274.363281 L 407.078125 274.363281 L 407.078125 244.78125 C 409.371094 244.992188 411.582031 245.222656 413.820312 245.511719" fill="#000000"></path><path fill-rule="nonzero" fill-opacity="1" d="M 440.851562 249.726562 L 440.851562 274.363281 L 434.113281 274.363281 L 434.113281 248.425781 L 440.851562 249.726562" fill="#000000"></path><path fill-rule="nonzero" fill-opacity="1" d="M 474.648438 257.949219 L 474.648438 283.339844 L 467.886719 283.339844 L 467.886719 255.996094 C 470.355469 256.722656 472.621094 257.347656 474.648438 257.949219" fill="#000000"></path></svg>